<?xml version="1.0" encoding="utf-8"?>
<!-- Generator: Adobe Illustrator 23.0.5, SVG Export Plug-In . SVG Version: 6.00 Build 0)  -->
<svg version="1.1" id="Capa_1" xmlns="http://www.w3.org/2000/svg" xmlns:xlink="http://www.w3.org/1999/xlink" x="0px" y="0px"
	 viewBox="0 0 143.61 94" style="enable-background:new 0 0 143.61 94;" xml:space="preserve">
<style type="text/css">
	.st0{opacity:0.5;}
	.st1{fill:#FFFFFF;}
</style>
<g class="st0">
	<path class="st1" d="M74.69,20.96l-1.46,1.13c-4.09-3.76-8.9-6.43-14.01-7.94l0.24-1.89c0.1-0.77-0.45-1.48-1.22-1.58l-9.07-1.15
		c-0.77-0.1-1.48,0.45-1.58,1.22l-0.25,1.97c-5.28,0.25-10.54,1.68-15.38,4.32l-1.29-1.67c-0.48-0.62-1.37-0.73-1.98-0.25l-7.23,5.6
		c-0.62,0.48-0.73,1.37-0.25,1.98l1.36,1.75c-3.65,4.03-6.24,8.76-7.72,13.78l-2.33-0.3c-0.77-0.1-1.48,0.45-1.58,1.22l-1.15,9.07
		c-0.1,0.77,0.45,1.48,1.22,1.58l2.41,0.3c0.25,5.18,1.62,10.34,4.17,15.1l-1.96,1.52c-0.62,0.48-0.73,1.37-0.25,1.98l5.6,7.23
		c0.48,0.62,1.37,0.73,1.98,0.25l1.96-1.52c3.97,3.66,8.63,6.28,13.58,7.81l-0.3,2.41c-0.1,0.77,0.45,1.48,1.22,1.58l9.07,1.15
		c0.77,0.1,1.48-0.45,1.58-1.22l0.3-2.33c5.23-0.18,10.45-1.51,15.27-4.04l1.36,1.75c0.48,0.62,1.37,0.73,1.98,0.25l7.23-5.6
		c0.62-0.48,0.73-1.37,0.25-1.98l-1.29-1.67c3.77-4.02,6.46-8.76,8.02-13.81l1.97,0.25c0.77,0.1,1.48-0.45,1.58-1.22l1.15-9.07
		c0.1-0.77-0.45-1.48-1.22-1.58l-1.89-0.24c-0.19-5.33-1.57-10.65-4.19-15.55l1.46-1.13c0.62-0.48,0.73-1.37,0.25-1.98l-5.6-7.23
		C76.19,20.6,75.3,20.48,74.69,20.96z M65.26,68.58c-11.15,8.64-27.18,6.61-35.82-4.54c-8.64-11.15-6.61-27.18,4.54-35.82
		c11.15-8.64,27.18-6.61,35.82,4.54C78.44,43.9,76.41,59.94,65.26,68.58z"/>
</g>
<g class="st0">
	<path class="st1" d="M125.54,18.43l-0.77,0.78c-2.7-1.9-5.74-3.1-8.86-3.59l-0.01-1.13c0-0.46-0.38-0.84-0.84-0.84l-5.43,0.02
		c-0.46,0-0.84,0.38-0.84,0.84l0.01,1.18c-3.09,0.56-6.08,1.8-8.72,3.74l-0.89-0.88c-0.33-0.33-0.86-0.32-1.19,0.01l-3.82,3.86
		c-0.33,0.33-0.32,0.86,0.01,1.19l0.93,0.93c-1.84,2.66-3,5.64-3.48,8.71l-1.4,0.01c-0.46,0-0.84,0.38-0.84,0.84l0.02,5.43
		c0,0.46,0.38,0.84,0.84,0.84l1.44-0.01c0.55,3.03,1.76,5.96,3.63,8.57l-1.04,1.04c-0.33,0.33-0.32,0.86,0.01,1.19l3.86,3.82
		c0.33,0.33,0.86,0.32,1.19-0.01l1.04-1.04c2.62,1.85,5.57,3.03,8.6,3.55l0.01,1.44c0,0.46,0.38,0.84,0.84,0.84l5.43-0.02
		c0.46,0,0.84-0.38,0.84-0.84l-0.01-1.4c3.06-0.51,6.04-1.7,8.68-3.56l0.93,0.93c0.33,0.33,0.86,0.32,1.19-0.01l3.82-3.86
		c0.33-0.33,0.32-0.86-0.01-1.19l-0.89-0.88c1.91-2.66,3.13-5.66,3.66-8.75l1.18-0.01c0.46,0,0.84-0.38,0.84-0.84l-0.02-5.43
		c0-0.46-0.38-0.84-0.84-0.84l-1.13,0.01c-0.52-3.12-1.75-6.15-3.67-8.83l0.77-0.78c0.33-0.33,0.32-0.86-0.01-1.19l-3.86-3.82
		C126.4,18.1,125.87,18.1,125.54,18.43z M123.67,47.2c-5.89,5.95-15.5,5.99-21.45,0.1c-5.95-5.89-5.99-15.5-0.1-21.45
		c5.89-5.95,15.5-5.99,21.45-0.1C129.52,31.65,129.57,41.25,123.67,47.2z"/>
</g>
</svg>
