<?xml version="1.0" encoding="utf-8"?>
<!-- Generator: Adobe Illustrator 23.0.5, SVG Export Plug-In . SVG Version: 6.00 Build 0)  -->
<svg version="1.1" id="Capa_1" xmlns="http://www.w3.org/2000/svg" xmlns:xlink="http://www.w3.org/1999/xlink" x="0px" y="0px"
	 viewBox="0 0 200 200" style="enable-background:new 0 0 200 200;" xml:space="preserve">
<style type="text/css">
	.st0{fill:#37A6DE;}
	.st1{fill:#166193;}
</style>
<g>
	<path class="st0" d="M103.35,15.03c3.68,0.67,7.43,1.08,11.03,2.07c11.23,3.07,20.4,9.36,27.62,18.46
		c6.52,8.22,10.27,17.63,11.34,28.03c0.93,9.04-0.44,17.85-3.3,26.45c-3.18,9.56-7.95,18.31-13.61,26.61
		c-0.83,1.22-1.7,2.43-2.79,3.99c0.88,0,1.44,0,2.01,0c7.08,0,14.15,0,21.23,0c2.43,0,2.92,0.34,3.85,2.59
		c7.84,18.98,15.68,37.95,23.52,56.93c0.23,0.56,0.47,1.13,0.6,1.72c0.31,1.39-0.38,2.56-1.76,2.91c-0.68,0.17-1.42,0.17-2.13,0.17
		c-53.96,0.01-107.93,0-161.89,0.03c-1.63,0-3.04-0.22-3.99-1.68c0-0.55,0-1.11,0-1.66c1.21-2.83,2.43-5.66,3.64-8.49
		c0.2-0.46,0.37-0.93,0.61-1.35c0.7-1.2,1.71-1.72,3.07-1.21c1.26,0.47,1.87,1.74,1.4,3.12c-0.54,1.56-1.21,3.08-1.83,4.62
		c-0.2,0.5-0.38,1-0.62,1.66c5.48,0,10.78,0.01,16.07-0.03c0.33,0,0.84-0.32,0.97-0.62c2.84-6.76,5.63-13.53,8.54-20.57
		c-1.09,0-1.95,0-2.8,0c-4.26,0-8.51,0.03-12.77-0.02c-0.96-0.01-1.51,0.23-1.83,1.19c-0.38,1.15-0.91,2.25-1.38,3.37
		c-0.99,2.39-2.16,3.2-3.68,2.56c-1.61-0.67-1.9-2.03-0.92-4.39c3.33-8.06,6.66-16.12,9.99-24.18c1.96-4.74,3.95-9.47,5.84-14.25
		c0.69-1.74,1.81-2.43,3.67-2.42c7.08,0.06,14.15,0.02,21.23,0.02c0.59,0,1.18,0,2.15,0c-0.65-0.93-1.1-1.59-1.56-2.24
		c-7.08-10.04-12.9-20.71-16.11-32.65c-3.89-14.48-3.16-28.63,4-41.99c7.44-13.89,18.89-23,34.21-26.99
		c3.18-0.83,6.5-1.16,9.75-1.72C98.92,15.03,101.14,15.03,103.35,15.03z M99.97,149.01c0.69-0.58,1.24-1.03,1.78-1.5
		c7.83-6.79,15.13-14.09,21.75-22.07c9.96-12,18.32-24.92,22.7-40.08c2.52-8.73,3.33-17.59,1.35-26.53
		c-3.17-14.32-11.11-25.3-23.86-32.52c-12.32-6.97-25.43-8.17-38.88-3.74c-11.96,3.94-20.98,11.61-27.16,22.54
		c-5.11,9.02-7,18.8-5.96,29.08c1.15,11.41,5.34,21.82,11.04,31.67c7.99,13.81,18.37,25.69,29.95,36.56
		C95.04,144.64,97.49,146.77,99.97,149.01z M43.56,179.96c2.69,0,5.17-0.08,7.64,0.03c1.26,0.06,1.82-0.36,2.29-1.52
		c3.85-9.46,7.77-18.89,11.66-28.34c1.68-4.08,3.34-8.18,5.06-12.25c0.98-2.31,2.62-2.68,4.59-1.13c0.17,0.14,0.34,0.29,0.51,0.43
		c16.42,13.98,32.85,27.95,49.28,41.92c0.4,0.34,0.91,0.79,1.38,0.8c4.56,0.06,9.12,0.04,13.95,0.04c-0.59-0.61-0.94-1.02-1.34-1.37
		c-3.82-3.36-7.66-6.7-11.49-10.05c-3.75-3.28-7.49-6.55-11.25-9.82c-1-0.87-1.86-1.79-1.31-3.27c0.57-1.53,1.83-1.76,3.24-1.69
		c0.39,0.02,0.77,0,1.16,0c15.65,0,31.3,0,46.96,0c0.6,0,1.21,0,2.05,0c-1.01-2.46-1.99-4.72-2.86-7.03
		c-0.36-0.95-0.9-1.21-1.86-1.19c-2.82,0.05-5.64,0.02-8.46,0.02c-1.82,0-3.65,0.02-5.47-0.05c-1.35-0.05-2.16-0.86-2.27-2.19
		c-0.12-1.41,0.59-2.33,1.98-2.62c0.59-0.12,1.21-0.13,1.81-0.13c3.81-0.01,7.62-0.01,11.53-0.01c-0.07-0.34-0.09-0.56-0.17-0.75
		c-1.81-4.39-3.65-8.77-5.4-13.18c-0.38-0.95-1-0.99-1.81-0.99c-7.96,0.01-15.93-0.02-23.89,0.05c-0.7,0.01-1.58,0.45-2.06,0.98
		c-3.84,4.2-7.61,8.47-11.39,12.73c-0.27,0.3-0.49,0.64-0.88,1.15c7.29,0,14.31-0.01,21.33,0.01c0.76,0,1.57,0.04,2.28,0.27
		c1.14,0.36,1.62,1.28,1.53,2.46c-0.1,1.19-0.76,1.95-1.93,2.16c-0.59,0.11-1.21,0.09-1.82,0.09c-8.41,0.01-16.81-0.03-25.22,0.05
		c-0.88,0.01-1.92,0.44-2.61,1.01c-2.65,2.18-5.16,4.52-7.76,6.75c-2.15,1.84-2.88,1.82-5.02,0.04
		c-9.35-7.76-17.9-16.32-25.57-25.73c-1.26-1.54-2.5-2.2-4.45-2.08c-1.18,0.07-1.73,0.42-2.16,1.5c-2.1,5.23-4.28,10.42-6.44,15.62
		c-1.13,2.74-1.29,2.84-4.31,2.84c-5.92,0-11.84-0.01-17.75,0.02c-0.53,0-1.37,0.19-1.53,0.55c-1.13,2.44-2.11,4.95-3.23,7.64
		c0.79,0,1.32,0,1.86,0c5.14,0,10.29,0,15.43,0c3.39,0,4.37,1.48,3.07,4.64c-2.02,4.9-4.06,9.79-6.09,14.69
		C45.45,175.31,44.54,177.55,43.56,179.96z M117.8,179.89c-14.88-12.66-29.41-25.02-44.07-37.49
		c-5.23,12.66-10.33,25.02-15.48,37.49C78.13,179.89,97.74,179.89,117.8,179.89z M123.57,158.74c0.66,0.62,1.01,0.96,1.37,1.28
		c7.24,6.33,14.47,12.68,21.75,18.97c0.63,0.55,1.63,0.93,2.47,0.93c9.34,0.06,18.69,0.04,28.03,0.04c0.47,0,0.93-0.05,1.54-0.08
		c-0.22-0.57-0.37-0.98-0.53-1.38c-2.52-6.12-5.08-12.23-7.55-18.38c-0.45-1.13-1.07-1.41-2.2-1.4c-9.79,0.04-19.57,0.02-29.36,0.02
		C134.05,158.74,129.02,158.74,123.57,158.74z M60.6,125.64c-5.59,0-10.87-0.01-16.16,0.03c-0.33,0-0.84,0.34-0.97,0.65
		c-1.97,4.66-3.89,9.33-5.91,14.22c5.56,0,10.9,0.01,16.24-0.03c0.32,0,0.79-0.39,0.93-0.7C56.67,135.19,58.57,130.56,60.6,125.64z"
		/>
	<path class="st0" d="M99.96,92.05c-16.82-0.04-27.93-18-20.47-33.1c0.81-1.65,2.13-2.26,3.48-1.61c1.3,0.61,1.76,2.06,1.01,3.7
		c-2.48,5.41-2.66,10.86,0.14,16.12c3.41,6.42,8.83,9.98,16.22,9.85c7.39-0.13,12.77-3.85,15.86-10.41
		c3.08-6.54,2.34-12.96-2.21-18.68c-5.83-7.33-15.12-8.99-23.18-4.3c-0.29,0.17-0.56,0.35-0.86,0.5c-1.54,0.78-2.86,0.46-3.58-0.84
		c-0.68-1.22-0.3-2.53,1.04-3.42c2.8-1.87,5.87-3.1,9.19-3.59c11.95-1.76,22.98,5.84,25.7,17.64
		C125.62,78.29,114.67,92.08,99.96,92.05z"/>
</g>
</svg>
