<?xml version="1.0" encoding="utf-8"?>
<!-- Generator: Adobe Illustrator 23.0.5, SVG Export Plug-In . SVG Version: 6.00 Build 0)  -->
<svg version="1.1" id="Capa_1" xmlns="http://www.w3.org/2000/svg" xmlns:xlink="http://www.w3.org/1999/xlink" x="0px" y="0px"
	 viewBox="0 0 200 200" style="enable-background:new 0 0 200 200;" xml:space="preserve">
<style type="text/css">
	.st0{fill:#37A6DE;}
	.st1{fill:#166193;}
</style>
<g>
	<path class="st0" d="M18.12,149.91c0-39.62,0-79.25,0-118.87c0.54-1.56,0.92-3.2,1.66-4.66c3.15-6.21,8.33-9.22,15.24-9.22
		c37.3-0.01,74.61-0.01,111.91-0.01c6.73,0,13.46-0.15,20.18,0.08c2.45,0.08,5.08,0.64,7.28,1.7c6.13,2.97,9.1,8.17,9.1,14.95
		c0.03,37.79,0.01,75.58,0.01,113.37c0,0.32,0,0.65-0.01,0.97c-0.24,6.15-4.47,10.59-10.61,11.12c-1.37,0.12-2.75,0.13-4.16,0.19
		c0,5.56,0,10.97,0,16.54c0.65,0,1.23,0,1.8,0c3.18,0,6.35-0.02,9.53,0.02c1.53,0.02,2.69,0.71,3.22,2.22
		c0.49,1.39,0.03,2.53-1.02,3.47c-0.31,0.28-0.67,0.5-1.01,0.75c-54.37,0-108.75,0-163.12,0c0-1.4,0-2.8,0-4.2
		c1.01-1.8,2.56-2.35,4.58-2.29c3.37,0.11,6.75,0.03,10.18,0.03c0-5.61,0-11.07,0-16.63c-1.02,0-1.93,0-2.84,0
		c-3.56-0.01-6.79-1.01-8.99-3.9C19.78,153.88,19.07,151.8,18.12,149.91z M105.33,176.03c0-0.73,0-1.31,0-1.89
		c0-12.6,0-25.2,0-37.79c0-3.08,1.12-4.2,4.19-4.2c6.14-0.01,12.27,0,18.41,0c3.51,0,4.52,1.02,4.53,4.52c0,12.49,0,24.98,0,37.47
		c0,0.62,0,1.24,0,1.86c3.12,0,6.01,0,9.04,0c0-0.65,0-1.23,0-1.81c0-10.44,0-20.89,0-31.33c0-0.48-0.02-0.97,0.01-1.45
		c0.14-1.97,1.5-3.36,3.26-3.33c1.77,0.03,3.07,1.41,3.18,3.41c0.03,0.43,0.01,0.86,0.01,1.29c0,10.5,0,21,0,31.49
		c0,0.57,0,1.14,0,1.69c4.85,0,9.5,0,14.11,0c0-23.2,0-46.28,0-69.41c-4.71,0-9.32,0-14.11,0c0,0.6,0,1.12,0,1.65
		c0,3.34,0,6.68,0,10.01c0,0.38,0.01,0.75-0.01,1.13c-0.12,2-1.42,3.39-3.18,3.41c-1.82,0.03-3.24-1.4-3.26-3.49
		c-0.05-4.95-0.02-9.91-0.02-14.86c0-3.29,1.06-4.39,4.32-4.4c6.14-0.01,12.27-0.01,18.41,0c3.35,0.01,4.4,1.09,4.4,4.48
		c0,15.5,0,31.01,0,46.51c0,0.62,0,1.25,0,1.97c0.77,0,1.3,0,1.84,0c5.02,0.02,6.56-1.52,6.56-6.52c0-32.52,0-65.03,0-97.55
		c0-0.63,0-1.26,0-1.93c-50.9,0-101.63,0-152.46,0c0,0.63,0,1.16,0,1.69c0,32.79,0,65.57,0,98.36c0,0.54-0.02,1.08,0.04,1.61
		c0.24,2.14,1.8,3.94,3.86,4.18c1.42,0.17,2.87,0.03,4.49,0.03c0-0.71,0-1.4,0-2.09c-0.03-11.13-0.88-10.24,10.3-10.22
		c3.98,0.01,7.97,0,11.95,0c3.99,0,4.89,0.88,4.89,4.81c0,9.64,0,19.27,0,28.91c0,0.57,0,1.14,0,1.69c3.13,0,6.06,0,9.04,0
		c0-0.77,0-1.41,0-2.05c0-21.53,0-43.07,0-64.6c0-3.37,1.07-4.47,4.42-4.48c6.03-0.01,12.06-0.01,18.09,0c3.61,0,4.62,1.02,4.62,4.6
		c0,21.59,0,43.18,0,64.76c0,0.62,0,1.23,0,1.86C99.4,176.03,102.24,176.03,105.33,176.03z M177.02,40.33
		c0-2.55,0.12-4.93-0.05-7.28c-0.09-1.36-0.42-2.8-1.02-4.02c-1.96-3.95-5.37-5.44-9.66-5.44c-43.65,0.02-87.29,0.01-130.94,0.02
		c-0.7,0-1.4-0.01-2.09,0.09c-3.78,0.51-6.55,2.48-7.95,6.02c-1.36,3.44-0.6,7.07-0.7,10.62C75.51,40.33,126.19,40.33,177.02,40.33z
		 M89.71,176c0-21.62,0-43.11,0-64.64c-4.72,0-9.33,0-14.01,0c0,21.58,0,43.07,0,64.64C80.39,176,84.99,176,89.71,176z
		 M111.86,175.98c4.79,0,9.4,0,14.04,0c0-12.48,0-24.88,0-37.26c-4.75,0-9.39,0-14.04,0C111.86,151.19,111.86,163.55,111.86,175.98z
		 M53.53,176c0-9.73,0-19.32,0-28.87c-4.76,0-9.4,0-14.01,0c0,9.69,0,19.24,0,28.87C44.21,176,48.82,176,53.53,176z"/>
	<path class="st0" d="M91.03,78.57c0.7,0.6,1.51,1.22,2.23,1.94c6.41,6.38,12.81,12.77,19.17,19.19c0.75,0.75,1.34,0.95,2.37,0.56
		c2.77-1.04,5.56-0.93,8.34,0.16c0.49,0.19,1.41,0.1,1.76-0.24c6.82-6.73,13.58-13.51,20.35-20.29c0.11-0.11,0.17-0.26,0.3-0.47
		c-2.06-3.23-2.69-6.69-1.46-10.43c1.74-5.31,7.25-8.65,12.82-7.74c5.57,0.91,9.73,5.76,9.77,11.38c0.04,5.59-4.16,10.68-9.66,11.42
		c-1.66,0.22-3.4-0.19-5.1-0.2c-0.66,0-1.52,0.12-1.94,0.53c-6.82,6.73-13.57,13.53-20.36,20.28c-0.63,0.63-0.72,1.1-0.38,1.94
		c1.89,4.71,1.03,9-2.41,12.67c-3.18,3.4-8.32,4.44-12.65,2.57c-4.59-1.98-7.02-5.62-7.15-10.58c-0.04-1.7,0.61-3.46,1.15-5.13
		c0.26-0.81,0.38-1.28-0.29-1.94c-6.88-6.82-13.71-13.69-20.6-20.5c-0.36-0.35-1.27-0.51-1.75-0.32c-2.83,1.13-5.66,1.23-8.5,0.19
		c-0.88-0.32-1.45-0.24-2.13,0.44c-5.84,5.89-11.7,11.74-17.59,17.58c-0.64,0.64-0.7,1.1-0.35,1.93c2.62,6.3-0.57,13.4-6.88,15.47
		c-6.61,2.17-13.45-1.51-15.04-8.26c-0.99-4.23,0.1-8.05,3.29-11.05c3.38-3.18,7.39-3.96,11.82-2.57c0.56,0.18,1.1,0.44,1.71,0.69
		c0.26-0.22,0.56-0.43,0.82-0.69c5.79-5.78,11.57-11.57,17.37-17.34c0.64-0.64,0.86-1.11,0.41-2.05
		c-2.39-5.01-1.06-10.63,3.23-14.09c4.01-3.24,9.9-3.39,13.96-0.36c4.49,3.36,6.02,8.96,3.84,14.1
		C91.39,77.66,91.27,77.96,91.03,78.57z M160.23,72.62c-0.04-2.81-2.37-5.09-5.18-5.08c-2.81,0.01-5.12,2.33-5.13,5.13
		c-0.01,2.86,2.42,5.24,5.26,5.18C157.98,77.79,160.27,75.42,160.23,72.62z M123.74,111.2c0.02-2.82-2.25-5.16-5.05-5.21
		c-2.86-0.05-5.28,2.33-5.26,5.19c0.02,2.79,2.36,5.12,5.15,5.13C121.4,116.31,123.72,114.01,123.74,111.2z M86.02,72.75
		c0.03-2.86-2.19-5.16-5.01-5.22c-2.88-0.05-5.27,2.29-5.26,5.16c0.01,2.79,2.34,5.13,5.13,5.15
		C83.68,77.87,85.99,75.58,86.02,72.75z M51.45,108.12c0.03-2.86-2.18-5.15-5.02-5.21c-2.86-0.06-5.28,2.31-5.27,5.16
		c0.01,2.81,2.31,5.09,5.14,5.1C49.17,113.19,51.42,110.98,51.45,108.12z"/>
	<path class="st0" d="M43.81,64.31c-2.37,0-4.74,0.02-7.1-0.01c-2.22-0.03-3.69-1.34-3.7-3.21c-0.01-1.87,1.46-3.22,3.68-3.23
		c4.84-0.03,9.69-0.03,14.53,0c2.23,0.01,3.69,1.34,3.7,3.21c0.01,1.87-1.47,3.2-3.68,3.23C48.76,64.34,46.28,64.31,43.81,64.31z"/>
	<path class="st0" d="M43.96,73.36c2.37,0,4.74-0.02,7.1,0.01c2.35,0.02,3.85,1.3,3.85,3.23c0,1.92-1.51,3.21-3.85,3.22
		c-4.74,0.02-9.47,0.02-14.21,0C34.51,79.8,33,78.51,33,76.59c0-1.92,1.5-3.2,3.85-3.23C39.22,73.34,41.59,73.36,43.96,73.36z"/>
	<path class="st0" d="M63.7,57.88c1.72-0.03,3.19,1.42,3.21,3.16c0.02,1.75-1.39,3.22-3.12,3.25c-1.68,0.03-3.22-1.47-3.25-3.16
		C60.51,59.45,62,57.91,63.7,57.88z"/>
	<path class="st0" d="M144.72,134.23c-1.72-0.01-3.2-1.5-3.19-3.2c0.01-1.72,1.49-3.15,3.23-3.14c1.74,0.01,3.2,1.47,3.19,3.18
		C147.93,132.79,146.44,134.25,144.72,134.23z"/>
	<path class="st0" d="M126.5,28.78c11.62,0,23.25,0,34.87,0c0.59,0,1.19-0.03,1.77,0.06c1.69,0.24,2.89,1.59,2.89,3.17
		c0,1.58-1.2,2.93-2.88,3.18c-0.53,0.08-1.07,0.06-1.61,0.06c-23.46,0-46.93,0-70.39,0c-0.05,0-0.11,0-0.16,0
		c-2.76-0.01-4.34-1.18-4.35-3.23c0-2.04,1.58-3.23,4.34-3.23C102.82,28.77,114.66,28.78,126.5,28.78z"/>
	<path class="st0" d="M41.99,32.01c0,1.67-1.54,3.2-3.2,3.2c-1.67,0-3.2-1.54-3.2-3.2c0-1.67,1.54-3.2,3.2-3.2
		C40.46,28.8,41.99,30.34,41.99,32.01z"/>
	<path class="st0" d="M51.74,35.21c-1.67,0.02-3.21-1.5-3.23-3.17c-0.02-1.67,1.5-3.21,3.17-3.23c1.67-0.02,3.21,1.5,3.23,3.17
		C54.93,33.64,53.42,35.19,51.74,35.21z"/>
	<path class="st0" d="M61.43,31.88c0.08-1.68,1.67-3.16,3.33-3.08c1.68,0.08,3.16,1.67,3.08,3.33c-0.08,1.68-1.67,3.16-3.33,3.08
		C62.82,35.13,61.35,33.54,61.43,31.88z"/>
</g>
</svg>
