<?xml version="1.0" encoding="utf-8"?>
<!-- Generator: Adobe Illustrator 23.0.5, SVG Export Plug-In . SVG Version: 6.00 Build 0)  -->
<svg version="1.1" id="Capa_1" xmlns="http://www.w3.org/2000/svg" xmlns:xlink="http://www.w3.org/1999/xlink" x="0px" y="0px"
	 viewBox="0 0 200 200" style="enable-background:new 0 0 200 200;" xml:space="preserve">
<style type="text/css">
	.st0{fill:#37A6DE;}
	.st1{fill:#166193;}
</style>
<g>
	<path class="st0" d="M185.07,90.49c-3.91,3.48-7.66,7.17-11.77,10.4c-4.02,3.17-6.95,6.91-8.91,11.65
		c-2.1,5.05-4.68,9.9-6.98,14.86c-0.25,0.54-0.29,1.4-0.04,1.93c3.88,8.11-1.01,16.62-10.02,17.35c-0.11,0.01-0.21,0.06-0.44,0.12
		c-0.73,7.15-4.66,11.25-11.94,11.98c-0.75,7.67-5.66,11.48-11.93,11.95c-0.52,10.9-13.14,15.88-21.04,7.99
		c-3.35,3.91-7.45,6.11-12.73,4.83c-5.25-1.27-8.1-4.86-9.12-10.23c-1.04,0-2.09,0.1-3.11-0.02c-5.61-0.67-9.7-4.81-10.34-10.45
		c-0.09-0.79-0.09-1.41-1.22-1.56c-6.92-0.92-10.9-5.64-10.73-12.6c0.01-0.22,0-0.44,0-0.76c-0.36-0.1-0.71-0.23-1.07-0.31
		c-8.45-1.78-12.23-11.45-7.16-18.45c0.68-0.94,0.69-1.48,0-2.4c-4.47-5.92-8.82-11.93-13.31-17.83c-0.99-1.3-2.33-2.35-3.58-3.43
		c-4.26-3.7-8.56-7.36-12.84-11.05c-2.33-2.01-2.47-3.53-0.51-5.95c10.12-12.54,20.24-25.07,30.36-37.61
		c1.85-2.29,3.17-2.49,5.71-0.88c5.19,3.29,10.34,6.63,15.57,9.85c1.53,0.94,3.22,1.71,4.93,2.22c5.14,1.51,10.33,2.89,15.52,4.23
		c0.8,0.21,1.76,0.19,2.57-0.03c4.53-1.23,9.07-2.47,13.55-3.88c2.84-0.9,5.67-1.26,8.64-1.22c6.2,0.09,12.4,0.06,18.61,0
		c0.83-0.01,1.76-0.28,2.46-0.71c5.49-3.43,10.94-6.93,16.4-10.41c2.68-1.71,3.98-1.49,5.92,1.03c9.09,11.8,18.17,23.6,27.26,35.4
		c0.43,0.56,0.86,1.11,1.3,1.66C185.07,88.94,185.07,89.72,185.07,90.49z M97.85,156.27c0.09,0.06,0.17,0.17,0.27,0.19
		c7.19,1.21,11.76,9.17,8.65,16.35c-0.13,0.31-0.05,0.91,0.17,1.15c1.46,1.54,3.23,2.34,5.38,1.78c3.85-1,5.11-5.56,2.3-8.58
		c-2.45-2.63-5.06-5.12-7.57-7.7c-1.34-1.37-1.61-2.82-0.87-4.21c1.08-2.04,3.67-2.36,5.48-0.58c2.53,2.48,5,5.02,7.49,7.55
		c1.43,1.45,3.14,2.07,5.13,1.55c3.92-1.01,5.13-5.65,2.2-8.69c-4.26-4.42-8.63-8.75-12.95-13.12c-0.54-0.55-1.12-1.08-1.59-1.69
		c-1.06-1.36-0.96-3.22,0.19-4.39c1.2-1.23,3.12-1.33,4.52-0.2c0.43,0.34,0.81,0.76,1.2,1.15c4.36,4.41,8.73,8.81,13.08,13.23
		c1.5,1.52,3.23,2.34,5.38,1.74c3.99-1.11,5.05-5.74,2-8.84c-6.83-6.94-13.7-13.85-20.55-20.78c-0.43-0.43-1.07-0.85-1.17-1.36
		c-0.21-1.12-0.54-2.53-0.05-3.38c0.49-0.85,1.9-1.55,2.93-1.6c0.92-0.04,2.06,0.73,2.79,1.46c6.94,6.92,13.8,13.92,20.71,20.87
		c2.38,2.39,5.56,2.48,7.66,0.31c2.07-2.12,1.93-5.2-0.41-7.54c-12.79-12.81-25.59-25.61-38.43-38.38c-0.56-0.55-1.49-0.92-2.29-1
		c-3.97-0.36-7.95-0.53-11.92-0.9c-1.18-0.11-1.76,0.19-2.33,1.23c-2.47,4.51-5,8.99-7.6,13.43c-2.75,4.7-8.01,6.9-13.07,5.6
		c-7.68-1.98-11.23-10.33-7.31-17.4c3.83-6.92,7.79-13.77,11.69-20.65c0.32-0.57,0.62-1.15,0.99-1.85c-2.87-0.8-5.59-1.51-8.28-2.32
		c-1.11-0.34-1.77-0.1-2.51,0.82c-6.35,7.82-12.76,15.59-19.15,23.38c-3.54,4.32-7.08,8.64-10.68,13.03
		c4.32,5.82,8.59,11.56,12.86,17.32c6.52-5.43,17.23-3.32,19.67,6.94c3.61-0.53,7.02,0.02,9.95,2.43c2.92,2.4,4.22,5.58,4.36,9.25
		C94.3,142.44,98.97,148.62,97.85,156.27z M151.65,123.71c0.59-1.13,0.82-1.55,1.03-1.99c2.58-5.39,5.12-10.79,7.76-16.15
		c0.54-1.09,0.33-1.77-0.36-2.64c-8.92-11.29-17.83-22.6-26.7-33.94c-0.65-0.84-1.31-1.14-2.36-1.13c-6.59,0.05-13.18,0-19.77,0.04
		c-1.09,0.01-2.21,0.15-3.26,0.45c-6.97,1.98-13.9,4.05-20.88,6c-1.24,0.35-1.97,0.97-2.56,2.07c-1.63,3.02-3.37,5.98-5.06,8.96
		c-2.15,3.8-4.34,7.59-6.44,11.42c-1.64,3-0.48,6.26,2.53,7.43c2.46,0.96,4.99-0.02,6.46-2.59c2.97-5.19,5.92-10.38,8.83-15.6
		c0.91-1.64,2.15-2.38,4.05-2.24c5.58,0.42,11.15,0.8,16.73,1.15c1.59,0.1,2.79,0.74,3.91,1.87c11.6,11.66,23.25,23.27,34.86,34.92
		C150.88,122.2,151.13,122.87,151.65,123.71z M50.51,56.75C41.25,68.22,32.1,79.55,22.91,90.93c3.98,3.42,7.83,6.73,11.76,10.1
		c9.82-11.96,19.52-23.78,29.31-35.71C59.44,62.43,55.07,59.65,50.51,56.75z M177.17,88.86c-8.28-10.76-16.47-21.39-24.69-32.06
		c-4.56,2.91-8.97,5.71-13.47,8.58c8.87,11.28,17.6,22.39,26.41,33.59C169.38,95.55,173.19,92.28,177.17,88.86z M66.98,154.74
		c0.49-0.19,1.69-0.31,2.38-0.96c3.1-2.92,6.18-5.88,9.03-9.04c1.76-1.95,1.3-5.03-0.59-6.77c-1.85-1.7-4.79-1.88-6.67-0.13
		c-2.95,2.76-5.81,5.62-8.57,8.57c-1.45,1.55-1.56,3.53-0.65,5.44C62.8,153.71,64.37,154.63,66.98,154.74z M72.98,161.49
		c0.4,2.33,1.38,3.91,3.32,4.79c2.01,0.91,3.95,0.62,5.54-0.9c2.72-2.6,5.4-5.25,7.99-7.98c2.1-2.21,2.02-5.32-0.03-7.31
		c-2.04-1.98-5.08-1.92-7.29,0.24c-2.58,2.51-5.17,5.01-7.6,7.66C74.04,158.94,73.61,160.31,72.98,161.49z M101.05,167.2
		c-0.02-1.16-0.87-2.68-2.63-3.63c-1.82-0.97-3.73-0.95-5.29,0.36c-1.89,1.59-3.67,3.35-5.27,5.24c-1.36,1.61-1.35,3.6-0.34,5.44
		c0.98,1.8,2.59,2.66,4.65,2.6C95.34,177.12,101.05,171.19,101.05,167.2z M60.08,126.72c-1,0.4-2.19,0.58-2.96,1.25
		c-1.84,1.58-3.58,3.29-5.16,5.12c-1.6,1.86-1.33,4.73,0.35,6.52c1.67,1.78,4.58,2.27,6.48,0.72c1.99-1.63,3.83-3.5,5.46-5.49
		c1.27-1.55,1.24-3.51,0.26-5.31C63.58,127.84,62.1,127,60.08,126.72z"/>
	<path class="st0" d="M117.97,55.44c-1.09-0.86-2.34-1.41-2.79-2.34c-0.42-0.88-0.1-2.18,0.1-3.25c0.09-0.47,0.66-0.86,1.05-1.25
		c7.16-7.16,14.31-14.33,21.49-21.47c0.57-0.57,1.26-1.13,2-1.41c1.37-0.52,2.64-0.1,3.56,1.04c0.92,1.14,1.05,2.43,0.29,3.71
		c-0.3,0.51-0.74,0.96-1.17,1.39c-7.15,7.17-14.3,14.34-21.49,21.46C120.22,54.09,119.18,54.6,117.97,55.44z"/>
	<path class="st0" d="M85.34,50.99c0,3.01-2.54,4.65-4.7,3.63c-0.44-0.21-0.86-0.51-1.21-0.86C72,46.33,64.57,38.9,57.14,31.45
		c-0.31-0.31-0.6-0.66-0.82-1.04c-0.75-1.32-0.5-2.91,0.58-3.96c1.07-1.04,2.69-1.26,3.97-0.48c0.47,0.28,0.88,0.67,1.27,1.06
		c7.21,7.19,14.42,14.38,21.58,21.61C84.5,49.43,85.01,50.48,85.34,50.99z"/>
	<path class="st0" d="M103.34,42.28c0,2.99,0.02,5.97-0.01,8.96c-0.02,2.25-1.4,3.72-3.38,3.69c-1.91-0.03-3.26-1.48-3.27-3.63
		c-0.02-6.08-0.02-12.17,0-18.25c0.01-2.1,1.42-3.61,3.29-3.63c1.87-0.02,3.32,1.48,3.35,3.57
		C103.37,36.09,103.34,39.18,103.34,42.28z"/>
	<path class="st0" d="M99.98,22.71c-1.78-0.02-3.26-1.49-3.28-3.27c-0.02-1.86,1.5-3.39,3.35-3.37c1.86,0.02,3.34,1.57,3.28,3.43
		C103.27,21.28,101.76,22.72,99.98,22.71z"/>
</g>
</svg>
