<svg id="Capa_1" data-name="Capa 1" xmlns="http://www.w3.org/2000/svg" xmlns:xlink="http://www.w3.org/1999/xlink" viewBox="0 0 610.14 239.86"><defs><style>.cls-1{fill:none;}.cls-17,.cls-2,.cls-8{fill:#166193;}.cls-3{fill:#37a5dd;}.cls-4{clip-path:url(#clip-path);}.cls-5{fill:#fff;}.cls-6{fill:#1d1e1c;}.cls-7{fill:#fcea1e;}.cls-17,.cls-8{font-size:44.83px;font-family:Dax-MediumCondensed, Dax;font-weight:500;}.cls-17,.cls-9{letter-spacing:-0.01em;}.cls-10{letter-spacing:-0.01em;}.cls-11{letter-spacing:-0.01em;}.cls-12{letter-spacing:-0.02em;}.cls-13{letter-spacing:-0.01em;}.cls-14{letter-spacing:-0.01em;}.cls-15{letter-spacing:-0.03em;}.cls-16{letter-spacing:-0.02em;}.cls-18{letter-spacing:-0.01em;}.cls-19{letter-spacing:0em;}</style><clipPath id="clip-path"><path class="cls-1" d="M39.89,120.54a87,87,0,1,0,87-87,87,87,0,0,0-87,87"/></clipPath></defs><title>logo_cabeza</title><path class="cls-2" d="M226.75,104.29h-5a95.46,95.46,0,0,0-16.69-39.93l3.63-3.63a3.8,3.8,0,0,0,0-5.37L191.32,38A3.78,3.78,0,0,0,186,38l-3.77,3.77a95.52,95.52,0,0,0-39.79-16.14V19.93a3.8,3.8,0,0,0-3.8-3.8H114a3.81,3.81,0,0,0-3.81,3.8v6A95.56,95.56,0,0,0,71.11,42.44L66.64,38a3.78,3.78,0,0,0-5.37,0L43.88,55.36a3.8,3.8,0,0,0,0,5.37l4.61,4.61a95.43,95.43,0,0,0-16,39H25.84A3.81,3.81,0,0,0,22,108.1v24.58a3.8,3.8,0,0,0,3.8,3.8H32.5a95.38,95.38,0,0,0,16,39L43.88,180a3.81,3.81,0,0,0,0,5.38L61.27,202.8a3.8,3.8,0,0,0,5.37,0l4.47-4.47a95.42,95.42,0,0,0,39.09,16.55v6a3.81,3.81,0,0,0,3.81,3.8h24.58a3.8,3.8,0,0,0,3.8-3.8v-5.68A95.38,95.38,0,0,0,182.18,199L186,202.8a3.8,3.8,0,0,0,5.37,0l17.39-17.38a3.81,3.81,0,0,0,0-5.38l-3.63-3.63a95.46,95.46,0,0,0,16.69-39.93h5a3.8,3.8,0,0,0,3.8-3.8V108.1a3.81,3.81,0,0,0-3.8-3.81"/><path class="cls-3" d="M213.91,120.54a87,87,0,1,1-87-87,87,87,0,0,1,87,87"/><g class="cls-4"><path class="cls-5" d="M199.29,120.33a72.54,72.54,0,1,1-72.54-72.54,72.54,72.54,0,0,1,72.54,72.54"/><path class="cls-6" d="M126.9,208.92a88.58,88.58,0,1,1,88.57-88.57,88.68,88.68,0,0,1-88.57,88.57m0-176.18a87.61,87.61,0,1,0,87.6,87.61,87.71,87.71,0,0,0-87.6-87.61"/><path class="cls-3" d="M185.16,119.94a58,58,0,1,1-58-58,58,58,0,0,1,58,58"/><path class="cls-7" d="M169.72,120.35A43.4,43.4,0,1,1,126.32,77a43.4,43.4,0,0,1,43.4,43.4"/><path class="cls-3" d="M234.61,177.07,147.9,111.43V263.17h86.71Z"/><polygon class="cls-3" points="75.42 142.13 63.26 133.12 63.26 148.91 75.42 142.13"/><polygon class="cls-3" points="117.84 130.46 105.67 121.34 105.67 137.32 117.84 130.46"/><path class="cls-2" d="M176.84,163.62c0,5.88-3.24,10.65-7.23,10.65s-7.23-4.77-7.23-10.65S165.61,153,169.61,153s7.23,4.77,7.23,10.65"/><path class="cls-2" d="M105.67,137.21V121.34L63.27,148.91V133.12L-6.86,176.69l0-16.43-51.65,27.45V264l206.39-1.21V111.43Z"/></g><text class="cls-8" transform="translate(251.7 93.68)"><tspan class="cls-9">CENTRO</tspan><tspan class="cls-10" x="120.6" y="0"> </tspan><tspan class="cls-11" x="131.41" y="0">DE</tspan><tspan x="171.53" y="0"> </tspan></text><text class="cls-8" transform="translate(251.7 141.16)"><tspan class="cls-12">F</tspan><tspan class="cls-13" x="16.14" y="0">OR</tspan><tspan class="cls-14" x="61.2" y="0">M</tspan><tspan class="cls-15" x="90.74" y="0">A</tspan><tspan class="cls-9" x="111.95" y="0">C</tspan><tspan class="cls-14" x="130.2" y="0">I</tspan><tspan class="cls-9" x="140.6" y="0">ÓN LA</tspan><tspan class="cls-16" x="237.17" y="0">B</tspan><tspan class="cls-14" x="258.73" y="0">O</tspan><tspan class="cls-12" x="282.36" y="0">R</tspan><tspan class="cls-9" x="303.3" y="0">A</tspan><tspan x="325.31" y="0">L</tspan></text><text class="cls-17" transform="translate(251.7 188.64)">N<tspan class="cls-18" x="24.43" y="0">º40</tspan><tspan x="77.47" y="0">4 /</tspan><tspan class="cls-14" x="129.7" y="0" xml:space="preserve"> B</tspan><tspan x="162.43" y="0">eriss</tspan><tspan class="cls-19" x="235.96" y="0">o</tspan></text></svg>